HIERARCHY
ROOT Hips
{
	OFFSET -42.198200 91.614723 -40.067841
	CHANNELS 6 Xposition Yposition Zposition Zrotation Yrotation Xrotation 
	JOINT LeftUpLeg
	{
		OFFSET 0.103456 1.857829 10.548506
		CHANNELS 3 Zrotation Yrotation Xrotation
		JOINT LeftLeg
		{
			OFFSET 43.499992 -0.000038 -0.000002
			CHANNELS 3 Zrotation Yrotation Xrotation
			JOINT LeftFoot
			{
				OFFSET 42.372192 0.000015 -0.000007
				CHANNELS 3 Zrotation Yrotation Xrotation
				JOINT LeftToe
				{
					OFFSET 17.299999 -0.000002 0.000003
					CHANNELS 3 Zrotation Yrotation Xrotation
					End Site
					{
						OFFSET 0.000000 0.000000 0.000000
					}
				}
			}
		}
	}
	JOINT RightUpLeg
	{
		OFFSET 0.103457 1.857829 -10.548503
		CHANNELS 3 Zrotation Yrotation Xrotation
		JOINT RightLeg
		{
			OFFSET 43.500042 -0.000027 0.000008
			CHANNELS 3 Zrotation Yrotation Xrotation
			JOINT RightFoot
			{
				OFFSET 42.372257 -0.000008 0.000014
				CHANNELS 3 Zrotation Yrotation Xrotation
				JOINT RightToe
				{
					OFFSET 17.299992 -0.000005 0.000004
					CHANNELS 3 Zrotation Yrotation Xrotation
					End Site
					{
						OFFSET 0.000000 0.000000 0.000000
					}
				}
			}
		}
	}
	JOINT Spine
	{
		OFFSET 6.901968 -2.603733 -0.000001
		CHANNELS 3 Zrotation Yrotation Xrotation
		JOINT Spine1
		{
			OFFSET 12.588099 0.000002 0.000000
			CHANNELS 3 Zrotation Yrotation Xrotation
			JOINT Spine2
			{
				OFFSET 12.343206 0.000000 -0.000001
				CHANNELS 3 Zrotation Yrotation Xrotation
				JOINT Neck
				{
					OFFSET 25.832886 -0.000004 0.000003
					CHANNELS 3 Zrotation Yrotation Xrotation
					JOINT Head
					{
						OFFSET 11.766620 0.000005 -0.000001
						CHANNELS 3 Zrotation Yrotation Xrotation
						End Site
						{
							OFFSET 0.000000 0.000000 0.000000
						}
					}
				}
				JOINT LeftShoulder
				{
					OFFSET 19.745899 -1.480370 6.000108
					CHANNELS 3 Zrotation Yrotation Xrotation
					JOINT LeftArm
					{
						OFFSET 11.284125 -0.000009 -0.000018
						CHANNELS 3 Zrotation Yrotation Xrotation
						JOINT LeftForeArm
						{
							OFFSET 33.000050 0.000004 0.000032
							CHANNELS 3 Zrotation Yrotation Xrotation
							JOINT LeftHand
							{
								OFFSET 25.200008 0.000015 0.000008
								CHANNELS 3 Zrotation Yrotation Xrotation
								End Site
								{
									OFFSET 0.000000 0.000000 0.000000
								}
							}
						}
					}
				}
				JOINT RightShoulder
				{
					OFFSET 19.746099 -1.480375 -6.000073
					CHANNELS 3 Zrotation Yrotation Xrotation
					JOINT RightArm
					{
						OFFSET 11.284138 -0.000015 -0.000012
						CHANNELS 3 Zrotation Yrotation Xrotation
						JOINT RightForeArm
						{
							OFFSET 33.000092 0.000017 0.000013
							CHANNELS 3 Zrotation Yrotation Xrotation
							JOINT RightHand
							{
								OFFSET 25.199780 0.000135 0.000422
								CHANNELS 3 Zrotation Yrotation Xrotation
								End Site
								{
									OFFSET 0.000000 0.000000 0.000000
								}
							}
						}
					}
				}
			}
		}
	}
}
MOTION
Frames: 7
Frame Time: 0.033333
-42.1982 91.614723 40.067841 90.170347 2.0860490000000063 -85.39202200000001 171.034972 -5.992200000000001 169.886585 -21.319295 4.166972000000001 -3.0133430000000003 84.29891900000001 0.023302999999999973 -9.810145000000004 21.454557999999995 0.0031230000000000003 1.9999999999999958e-05 170.856526 0.3632969999999999 -168.197903 -22.83642 -2.021979 6.742188 84.710356 -4.013207 2.880859 21.454550000000005 -0.0030820000000000005 2.0000000000000414e-06 5.766118 0.15315499999999999 -0.061496 1.5074589999999997 0.3042509999999999 -0.122335 1.189346 0.303351 -0.124202 10.441162999999996 -0.22298899999999997 1.5099239999999998 -24.817227999999997 4.718811999999999 -0.5142710000000001 -112.84913700000045 -88.40725700000064 -68.96213200000061 7.9632070000000015 23.947900000000004 -30.814760000000003 -57.416912999999994 -14.705767999999996 2.028130999999999 -4.092284999999999 -14.401765999999997 17.998196999999998 -75.85272699999997 83.35574500000004 106.53214800000015 7.686574000000005 -24.469569 21.835147999999997 -58.556953000000014 27.048987 -2.8934529999999965 4.518584 14.680797999999996 -10.156246999999999
-42.167759 91.60643 40.190849 90.17034099999996 2.1009929999999977 -85.37372400000001 170.96157500000004 -6.0160990000000005 169.888088 -21.275177 4.15074 -2.9946569999999997 84.299001 0.013779999999998307 -9.793930000000001 21.45455799999999 0.0031049999999999997 1.7000000000000064e-05 170.764674 0.3495010000000001 -168.165937 -22.836413000000007 -2.0186150000000005 6.736290000000002 84.703887 -4.013199000000001 2.8333230000000005 21.454555000000006 -0.003089000000000001 -1.0000000000001452e-06 5.76612 0.15314800000000006 -0.06148600000000001 1.501526 0.30425099999999994 -0.122344 1.18342 0.30335400000000007 -0.12419899999999998 10.453953999999998 -0.227104 1.5099240000000003 -24.850758999999996 4.788270000000002 -0.5423650000000002 -113.09928599999957 -88.4148929999997 -68.71043299999982 7.961321999999996 23.918672000000004 -30.775357000000007 -57.511859 -14.732920000000004 2.028134999999999 -4.0325050000000005 -14.351071000000003 17.898803000000004 -75.82442999999995 83.35571099999994 106.56064999999995 7.667455000000004 -24.459893 21.880333000000004 -58.56517700000003 27.052943000000006 -2.893447000000002 4.472485999999999 14.622030999999998 -10.187227000000002
-42.108921 91.592583 40.415321 90.170341 2.1269950000000017 -85.34440200000002 170.844505 -6.052994999999999 169.81775 -21.160551000000005 4.146585999999999 -2.9238350000000013 84.28648099999998 -0.03070000000000117 -9.763176 21.454557 0.0031020000000000006 1.4000000000000044e-05 170.598919 0.322298 -168.079932 -22.829311000000004 -2.0341930000000006 6.709418 84.69391500000003 -4.011327000000002 2.7478010000000013 21.45455 -0.0030900000000000003 -9.999999999998244e-07 5.766114999999998 0.15315099999999998 -0.06148899999999999 1.4917030000000002 0.304254 -0.12233699999999999 1.173584 0.303347 -0.124201 10.453480000000003 -0.236121 1.5099229999999997 -24.88619200000001 4.907224 -0.5970560000000001 -113.42126800000065 -88.42927800000041 -68.38705000000014 7.984727999999999 23.911146999999993 -30.884444999999992 -57.72877300000001 -14.679848999999999 2.028136999999999 -4.136024 -14.268969 18.013451000000007 -75.76946700000009 83.36094300000012 106.61525000000002 7.638903 -24.445478000000005 22.009012000000002 -58.64179799999997 27.02598099999999 -2.893456999999998 4.401521000000001 14.535997000000004 -10.368672
-42.0494 91.582336 40.639999 90.170347 2.1545310000000035 -85.32119300000001 170.74664200000004 -6.090195 169.75566399999997 -21.010234000000004 4.121334000000001 -2.8598750000000006 84.25672899999999 -0.06968800000000046 -9.724419 21.454560000000008 0.003111000000000001 1.8000000000000156e-05 170.440076 0.288893 -167.950732 -22.798412000000006 -2.0847349999999993 6.657381999999999 84.671096 -3.990574 2.667014 21.45455 -0.0030949999999999997 -9.706282611400902e-20 5.766110000000002 0.153162 -0.061496000000000016 1.4915420000000006 0.30424400000000007 -0.12131800000000004 1.173436 0.3033499999999999 -0.12325099999999997 10.381869 -0.22032399999999994 1.5099239999999994 -24.93667900000001 4.903468000000001 -0.603226 -113.18195800000053 -88.3995320000007 -68.62926300000078 7.964716999999998 23.943189000000007 -31.063031 -57.92455300000001 -14.610567000000001 2.028134000000001 -4.284527999999999 -14.203230999999999 18.144666999999995 -75.89684999999989 83.3327 106.490456 7.610075999999999 -24.412205999999998 22.146713 -58.743315 26.970847999999997 -2.8934599999999993 4.380973000000001 14.525914 -10.579822000000002
-41.992329 91.582497 40.865059 90.170334 2.1864810000000015 -85.303865 170.684761 -6.131188000000002 169.767972 -20.791690000000003 4.029383 -2.8375770000000005 84.18900100000002 -0.07720299999999929 -9.666243 21.45455799999999 0.003112 1.699999999999996e-05 170.308486 0.2591020000000001 -167.82451 -22.70071799999999 -2.130788 6.60097 84.608729 -3.9674840000000002 2.5810809999999997 21.454551000000002 -0.0030930000000000003 9.99999999999932e-07 5.766117 0.15314399999999997 -0.06148299999999998 1.496628 0.30712000000000006 -0.12008699999999999 1.178515 0.3062329999999999 -0.12204800000000003 10.305900000000003 -0.21508700000000006 1.5243829999999998 -25.060495000000003 4.810173 -0.5519640000000001 -113.0776410000003 -88.33481600000012 -68.73760999999999 7.912712999999998 24.013883 -31.227122999999988 -58.06493400000001 -14.544284999999999 2.028141 -4.3052909999999995 -14.227281 18.227287 -76.01208899999982 83.27109799999978 106.3810229999998 7.592412 -24.398511000000003 22.252614999999995 -58.853363 26.914262999999995 -2.8934550000000003 4.366787999999999 14.567100999999994 -10.678438999999997
-41.941051 91.588997 41.090809 90.170341 2.2238400000000027 -85.28943999999998 170.632988 -6.171498999999999 169.792588 -20.543309 3.925082999999999 -2.824024 84.101663 -0.07448299999999983 -9.601188 21.454557999999995 0.003101 1.699999999999985e-05 170.19393 0.227902 -167.729775 -22.555127000000002 -2.1611310000000006 6.557972000000001 84.50956899999998 -3.953318999999998 2.4956339999999995 21.454553 -0.0030920000000000014 1.0000000000000576e-06 5.766117 0.15998299999999996 -0.061481000000000015 1.5026930000000003 0.320821 -0.11895 1.1845900000000005 0.31990299999999994 -0.12097500000000003 10.276318000000003 -0.22374600000000003 1.5888359999999997 -25.274965 4.680238999999999 -0.4367279999999997 -113.02279399999983 -88.2337569999997 -68.79964199999947 7.8523840000000025 24.118899000000003 -31.315564000000002 -58.14619299999998 -14.508066 2.0281339999999997 -4.209695999999999 -14.310220000000003 18.234499999999997 -75.98648299999998 83.23795100000002 106.41005100000011 7.618195000000001 -24.414619999999996 22.316568999999998 -58.949463999999985 26.869693999999992 -2.893454999999998 4.347628 14.628372000000004 -10.646701
-41.896149 91.596718 41.317692 90.16511500000003 2.2688129999999953 -85.26685900000003 170.571079 -6.201608 169.830017 -20.295576 3.820437 -2.814056000000001 84.00608100000002 -0.06757299999999979 -9.533422 21.454562000000003 0.0031060000000000007 1.5000000000000105e-05 170.061383 0.1985830000000001 -167.730868 -22.430729000000003 -2.1720630000000005 6.573779999999999 84.40197899999998 -3.9754460000000003 2.431238 21.454551 -0.0030870000000000008 1.000000000000108e-06 5.766105999999998 0.169 -0.061491000000000004 1.5087840000000003 0.33881400000000006 -0.11828800000000003 1.190673 0.337916 -0.12037300000000001 10.273000999999999 -0.19079799999999997 1.6747019999999997 -25.481226 4.510307999999999 -0.274135 -113.40940400000048 -88.16133600000082 -68.41715100000083 7.804518000000004 24.265717000000006 -31.283147 -58.133536 -14.512376000000003 2.0281370000000014 -4.1959089999999994 -14.508302 18.215592 -76.08171599999994 83.18727099999991 106.31987199999986 7.671375999999999 -24.451755000000002 22.353151999999998 -59.03334499999998 26.858468999999996 -2.8934469999999965 4.307807999999999 14.606709999999998 -10.590821000000002
